<svg width="100" height="100" viewBox="0 0 100 100" fill="none" xmlns="http://www.w3.org/2000/svg">
<g clip-path="url(#clip0_209_11)">
<path d="M69.8875 0.0500438C69.675 -0.187456 62.0188 0.143794 55.3563 7.37504C48.6938 14.6 49.7188 22.8875 49.8688 23.1C50.0188 23.3125 59.3688 23.6438 65.3375 15.2375C71.3063 6.83129 70.1 0.293794 69.8875 0.0500438M90.6 73.3813C90.3 72.7813 76.0688 65.6688 77.3938 51.9938C78.7188 38.3188 87.8625 34.5625 88.0063 34.1563C88.15 33.75 84.275 29.2188 80.1688 26.925C77.1532 25.3094 73.8168 24.383 70.4 24.2125C69.725 24.1938 67.3813 23.6188 62.5625 24.9375C59.3875 25.8063 52.2313 28.6188 50.2625 28.7313C48.2875 28.8438 42.4125 25.4688 36.0938 24.575C32.05 23.7938 27.7625 25.3938 24.6938 26.625C21.6313 27.85 15.8063 31.3375 11.7313 40.6063C7.65627 49.8688 9.78752 64.5438 11.3125 69.1063C12.8375 73.6688 15.2188 81.1313 19.2688 86.5813C22.8688 92.7313 27.6438 97 29.6375 98.45C31.6313 99.9 37.2563 100.863 41.1563 98.8688C44.2938 96.9438 49.9563 95.8375 52.1938 95.9188C54.425 96 58.825 96.8813 63.3313 99.2875C66.9 100.519 70.275 100.006 73.6563 98.6313C77.0375 97.25 81.9313 92.0125 87.6438 81.3938C89.8104 76.4563 90.7959 73.7855 90.6 73.3813" fill="black"/>
<path d="M69.8875 0.0500438C69.675 -0.187456 62.0188 0.143794 55.3563 7.37504C48.6938 14.6 49.7188 22.8875 49.8688 23.1C50.0188 23.3125 59.3688 23.6438 65.3375 15.2375C71.3063 6.83129 70.1 0.293794 69.8875 0.0500438M90.6 73.3813C90.3 72.7813 76.0688 65.6688 77.3938 51.9938C78.7188 38.3188 87.8625 34.5625 88.0063 34.1563C88.15 33.75 84.275 29.2188 80.1688 26.925C77.1532 25.3094 73.8168 24.383 70.4 24.2125C69.725 24.1938 67.3813 23.6188 62.5625 24.9375C59.3875 25.8063 52.2313 28.6188 50.2625 28.7313C48.2875 28.8438 42.4125 25.4688 36.0938 24.575C32.05 23.7938 27.7625 25.3938 24.6938 26.625C21.6313 27.85 15.8063 31.3375 11.7313 40.6063C7.65627 49.8688 9.78752 64.5438 11.3125 69.1063C12.8375 73.6688 15.2188 81.1313 19.2688 86.5813C22.8688 92.7313 27.6438 97 29.6375 98.45C31.6313 99.9 37.2563 100.863 41.1563 98.8688C44.2938 96.9438 49.9563 95.8375 52.1938 95.9188C54.425 96 58.825 96.8813 63.3313 99.2875C66.9 100.519 70.275 100.006 73.6563 98.6313C77.0375 97.25 81.9313 92.0125 87.6438 81.3938C89.8104 76.4563 90.7959 73.7855 90.6 73.3813" fill="black"/>
</g>
<defs>
<clipPath id="clip0_209_11">
<rect width="100" height="100" fill="white"/>
</clipPath>
</defs>
</svg>
