<svg width="100" height="100" viewBox="0 0 100 100" fill="none" xmlns="http://www.w3.org/2000/svg">
<path d="M90.8562 41.8397H87.4999V41.6668H49.9999V58.3335H73.5478C70.1124 68.0356 60.8812 75.0002 49.9999 75.0002C36.1937 75.0002 24.9999 63.8064 24.9999 50.0002C24.9999 36.1939 36.1937 25.0002 49.9999 25.0002C56.3728 25.0002 62.1708 27.4043 66.5853 31.3314L78.3707 19.546C70.9291 12.6106 60.9749 8.3335 49.9999 8.3335C26.9895 8.3335 8.33325 26.9897 8.33325 50.0002C8.33325 73.0106 26.9895 91.6668 49.9999 91.6668C73.0103 91.6668 91.6666 73.0106 91.6666 50.0002C91.6666 47.2064 91.3791 44.4793 90.8562 41.8397Z" fill="#FFC107"/>
<path d="M13.1375 30.6064L26.827 40.646C30.5312 31.4752 39.502 25.0002 50 25.0002C56.3729 25.0002 62.1708 27.4043 66.5854 31.3314L78.3708 19.546C70.9291 12.6106 60.975 8.3335 50 8.3335C33.9958 8.3335 20.1166 17.3689 13.1375 30.6064Z" fill="#FF3D00"/>
<path d="M50 91.6666C60.7625 91.6666 70.5417 87.5479 77.9354 80.85L65.0396 69.9375C60.7157 73.2258 55.4322 75.0043 50 75C39.1625 75 29.9604 68.0896 26.4937 58.4458L12.9062 68.9145C19.8021 82.4083 33.8063 91.6666 50 91.6666Z" fill="#4CAF50"/>
<path d="M90.8562 41.8394H87.5V41.6665H50V58.3332H73.5479C71.9046 62.9507 68.9445 66.9856 65.0333 69.9394L65.0396 69.9353L77.9354 80.8478C77.0229 81.6769 91.6667 70.8332 91.6667 49.9998C91.6667 47.2061 91.3792 44.479 90.8562 41.8394Z" fill="#1976D2"/>
</svg>
